<svg xmlns="http://www.w3.org/2000/svg" viewBox="0 0 512 512" width="100%" height="100%">
  <defs>
    <linearGradient id="gradient" x1="0%" y1="0%" x2="100%" y2="100%">
      <stop offset="0%" stop-color="#4481eb" />
      <stop offset="100%" stop-color="#04befe" />
    </linearGradient>
  </defs>
  <rect width="512" height="512" rx="50" fill="url(#gradient)" opacity="0.9" />
  <g transform="translate(80, 100)">
    <!-- Speech bubble -->
    <path d="M300 50 C 380 50, 380 200, 300 200 L 200 200 L 180 240 L 160 200 L 50 200 C -30 200, -30 50, 50 50 Z" 
          fill="white" stroke="none" />
    <!-- F letter -->
    <path d="M80 80 L 160 80 L 160 110 L 110 110 L 110 130 L 150 130 L 150 160 L 110 160 L 110 200" 
          stroke="#4481eb" stroke-width="15" stroke-linecap="round" stroke-linejoin="round" fill="none" />
    <!-- B letter -->
    <path d="M190 80 L 240 80 C 270 80, 270 120, 240 120 L 190 120 L 190 80 Z" 
          fill="#04befe" />
    <path d="M190 130 L 250 130 C 280 130, 280 170, 250 170 L 190 170 L 190 130 Z" 
          fill="#04befe" />
    <path d="M190 80 L 190 170" 
          stroke="#04befe" stroke-width="15" stroke-linecap="round" fill="none" />
  </g>
  <text x="256" y="350" font-family="Arial, sans-serif" font-size="40" font-weight="bold" 
        text-anchor="middle" fill="white">FEEDBACK</text>
</svg>